<svg width="32" height="32" viewBox="0 0 32 32" fill="none" xmlns="http://www.w3.org/2000/svg">
<g clip-path="url(#clip0_123_3576)">
<path d="M15.9977 31.9953C24.8329 31.9953 31.9953 24.8329 31.9953 15.9977C31.9953 7.16239 24.8329 0 15.9977 0C7.16239 0 0 7.16239 0 15.9977C0 24.8329 7.16239 31.9953 15.9977 31.9953Z" fill="#1C1A23"/>
<path fill-rule="evenodd" clip-rule="evenodd" d="M7.93086 10.8933H24.0223L15.9742 15.5431L7.93086 10.8933ZM24.7488 11.3152V20.6241L18.2663 15.0603L24.7488 11.3152ZM24.1863 21.1022H7.81368L14.3899 15.4587L15.7961 16.2743L15.9836 16.3774L16.1617 16.2743L17.6007 15.4447L24.1957 21.1022H24.1863ZM7.25121 20.6241V11.3433L13.7196 15.0744L7.24652 20.6241H7.25121Z" fill="#FFFFFE"/>
</g>
<defs>
<clipPath id="clip0_123_3576">
<rect width="32" height="32" fill="white"/>
</clipPath>
</defs>
</svg>
