<svg width="44" height="44" viewBox="0 0 44 44" fill="none" xmlns="http://www.w3.org/2000/svg">
<rect width="44" height="44" rx="22" fill="#1C1A23"/>
<g clip-path="url(#clip0_131_485)">
<path d="M31.94 17.8778C31.9235 17.0481 31.7665 16.2272 31.4756 15.45C31.2241 14.7827 30.8302 14.1783 30.3211 13.6789C29.8217 13.1698 29.2173 12.7759 28.55 12.5244C27.7732 12.2336 26.9527 12.0766 26.1233 12.06C25.0556 12.0111 24.7156 12 22 12C19.2844 12 18.9444 12.0111 17.8778 12.06C17.0481 12.0765 16.2272 12.2335 15.45 12.5244C14.7823 12.7757 14.1775 13.1697 13.6778 13.6789C13.1687 14.1783 12.7748 14.7827 12.5233 15.45C12.2325 16.2268 12.0755 17.0473 12.0589 17.8767C12.0111 18.9444 12 19.2844 12 22C12 24.7156 12.0111 25.0556 12.06 26.1222C12.0765 26.9519 12.2335 27.7728 12.5244 28.55C12.7759 29.2173 13.1698 29.8217 13.6789 30.3211C14.1782 30.8302 14.7827 31.2242 15.45 31.4756C16.2268 31.7664 17.0473 31.9234 17.8767 31.94C18.9444 31.9889 19.2844 32 22 32C24.7156 32 25.0556 31.9889 26.1222 31.94C26.9519 31.9235 27.7728 31.7665 28.55 31.4756C29.2146 31.2186 29.8181 30.8257 30.3219 30.3219C30.8257 29.8181 31.2186 29.2146 31.4756 28.55C31.7664 27.7732 31.9234 26.9527 31.94 26.1233C31.9889 25.0556 32 24.7156 32 22C32 19.2844 31.9889 18.9444 31.94 17.8778ZM30.14 26.0411C30.1323 26.6748 30.0158 27.3024 29.7956 27.8967C29.6293 28.3281 29.3746 28.72 29.0478 29.0471C28.7209 29.3741 28.3292 29.6291 27.8978 29.7956C27.3032 30.0159 26.6752 30.1324 26.0411 30.14C24.9856 30.1878 24.67 30.1978 22 30.1978C19.33 30.1978 19.0133 30.1878 17.9589 30.14C17.3252 30.1323 16.6976 30.0158 16.1033 29.7956C15.6685 29.6355 15.2752 29.38 14.9522 29.0478C14.6202 28.7251 14.3646 28.3322 14.2044 27.8978C13.9841 27.3032 13.8675 26.6752 13.86 26.0411C13.8122 24.9856 13.8022 24.67 13.8022 22C13.8022 19.33 13.8122 19.0133 13.86 17.9589C13.8677 17.3252 13.9842 16.6976 14.2044 16.1033C14.3645 15.6685 14.62 15.2752 14.9522 14.9522C15.2749 14.6202 15.6678 14.3646 16.1022 14.2044C16.6968 13.9841 17.3248 13.8676 17.9589 13.86C19.0144 13.8122 19.33 13.8022 22 13.8022C24.67 13.8022 24.9867 13.8122 26.0411 13.86C26.6748 13.8677 27.3024 13.9842 27.8967 14.2044C28.3315 14.3645 28.7248 14.62 29.0478 14.9522C29.3798 15.2749 29.6354 15.6678 29.7956 16.1022C30.0159 16.6968 30.1324 17.3248 30.14 17.9589C30.1878 19.0144 30.1978 19.33 30.1978 22C30.1978 24.67 30.1878 24.9867 30.14 26.0411ZM22 16.8644C20.9843 16.8644 19.9914 17.1656 19.1468 17.7299C18.3023 18.2942 17.6441 19.0963 17.2554 20.0347C16.8667 20.9731 16.765 22.0057 16.9631 23.0019C17.1613 23.9981 17.6504 24.9132 18.3686 25.6314C19.0868 26.3496 20.0019 26.8387 20.9981 27.0369C21.9943 27.235 23.0269 27.1333 23.9653 26.7446C24.9037 26.3559 25.7058 25.6977 26.2701 24.8532C26.8344 24.0086 27.1356 23.0157 27.1356 22C27.1356 20.638 26.5945 19.3317 25.6314 18.3686C24.6683 17.4055 23.362 16.8644 22 16.8644ZM22 25.3333C21.3407 25.3333 20.6963 25.1378 20.1481 24.7716C19.5999 24.4053 19.1727 23.8847 18.9204 23.2756C18.6681 22.6665 18.6021 21.9963 18.7307 21.3497C18.8593 20.7031 19.1768 20.1092 19.643 19.643C20.1092 19.1768 20.7031 18.8593 21.3497 18.7307C21.9963 18.6021 22.6665 18.6681 23.2756 18.9204C23.8847 19.1727 24.4053 19.5999 24.7716 20.1481C25.1378 20.6963 25.3333 21.3407 25.3333 22C25.3333 22.8841 24.9821 23.7319 24.357 24.357C23.7319 24.9821 22.8841 25.3333 22 25.3333ZM28.5378 16.6622C28.5378 16.8996 28.4674 17.1316 28.3355 17.3289C28.2037 17.5262 28.0163 17.6801 27.797 17.7709C27.5777 17.8617 27.3364 17.8855 27.1037 17.8392C26.8709 17.7929 26.6571 17.6786 26.4892 17.5108C26.3214 17.3429 26.2071 17.1291 26.1608 16.8963C26.1145 16.6636 26.1383 16.4223 26.2291 16.203C26.3199 15.9837 26.4738 15.7963 26.6711 15.6645C26.8684 15.5326 27.1004 15.4622 27.3378 15.4622C27.656 15.4622 27.9613 15.5887 28.1863 15.8137C28.4114 16.0387 28.5378 16.344 28.5378 16.6622Z" fill="white"/>
</g>
<defs>
<clipPath id="clip0_131_485">
<rect width="20" height="20" fill="white" transform="translate(12 12)"/>
</clipPath>
</defs>
</svg>
