<svg width="44" height="44" viewBox="0 0 44 44" fill="none" xmlns="http://www.w3.org/2000/svg">
<rect width="44" height="44" rx="22" fill="#1C1A23"/>
<g clip-path="url(#clip0_131_477)">
<path d="M16.7546 16.4985V30.0002H12.2587V16.4985H16.7546ZM17.0404 12.3302C17.0412 12.3544 17.0421 12.3827 17.0421 12.4119C17.0421 13.036 16.7771 13.5977 16.3537 13.991L16.3521 13.9919C15.8979 14.4069 15.2904 14.661 14.6229 14.661C14.5821 14.661 14.5404 14.6602 14.4996 14.6585H14.5054H14.4779C14.4437 14.6602 14.4037 14.661 14.3637 14.661C13.7104 14.661 13.1171 14.406 12.6762 13.991L12.6771 13.9919C12.2571 13.5852 11.9971 13.0169 11.9971 12.3877C11.9971 12.3677 11.9971 12.3477 11.9979 12.3269V12.3302C11.9971 12.3127 11.9971 12.2927 11.9971 12.2727C11.9971 11.6377 12.2671 11.066 12.6979 10.6652L12.6996 10.6644C13.1529 10.2519 13.7587 9.99854 14.4229 9.99854C14.4612 9.99854 14.4987 9.99937 14.5371 10.001H14.5321C14.5679 9.99937 14.6087 9.99854 14.6512 9.99854C15.3054 9.99854 15.9012 10.251 16.3462 10.6635L16.3446 10.6619C16.7737 11.076 17.0404 11.656 17.0404 12.2985V12.3335V12.3319V12.3302ZM32.9254 22.2635V30.0002H28.4437V22.7794C28.4479 22.7135 28.4496 22.6369 28.4496 22.5602C28.4496 21.8135 28.2421 21.116 27.8812 20.521L27.8912 20.5385C27.5354 20.0419 26.9604 19.7227 26.3112 19.7227C26.2612 19.7227 26.2112 19.7244 26.1612 19.7285H26.1679C26.1454 19.7277 26.1196 19.7269 26.0937 19.7269C25.5771 19.7269 25.1021 19.9044 24.7262 20.2019L24.7312 20.1985C24.3537 20.5044 24.0579 20.8952 23.8712 21.3444L23.8646 21.3635C23.7679 21.6594 23.7129 21.9994 23.7129 22.3527C23.7129 22.3927 23.7137 22.4327 23.7154 22.4727V22.4669V30.0019H19.2337C19.2521 26.378 19.2612 23.4396 19.2612 21.1869C19.2612 18.9341 19.2568 17.5899 19.2479 17.1544L19.2346 16.5002H23.7162V18.4619H23.6887C23.8671 18.1744 24.0512 17.9252 24.2537 17.6919L24.2471 17.6994C24.4812 17.4419 24.7329 17.2094 25.0037 17.001L25.0171 16.991C25.3537 16.7319 25.7487 16.5285 26.1771 16.4044L26.2021 16.3985C26.6504 16.2644 27.1662 16.1869 27.6996 16.1869H27.7654H27.7621C27.8212 16.1844 27.8904 16.1827 27.9596 16.1827C29.3604 16.1827 30.6221 16.7777 31.5062 17.7294L31.5087 17.7327C32.4543 18.7638 32.9271 20.2738 32.9271 22.2627L32.9254 22.2635Z" fill="white"/>
</g>
<defs>
<clipPath id="clip0_131_477">
<rect width="20.8333" height="20" fill="white" transform="translate(12 10)"/>
</clipPath>
</defs>
</svg>
