<svg width="44" height="44" viewBox="0 0 44 44" fill="none" xmlns="http://www.w3.org/2000/svg">
<rect width="44" height="44" rx="22" fill="#1C1A23"/>
<path d="M30.1643 26.1561C27.7758 25.7626 26.7052 23.3216 26.661 23.2179L26.6564 23.2081C26.5886 23.0972 26.5458 22.9728 26.5311 22.8436C26.5164 22.7144 26.5301 22.5835 26.5712 22.4602C26.7317 22.0821 27.2624 21.9137 27.614 21.8021C27.7018 21.7743 27.7849 21.7479 27.85 21.7221C28.4856 21.471 28.6149 21.2111 28.6117 21.0372C28.595 20.9287 28.5463 20.8276 28.4719 20.7469C28.3975 20.6663 28.3007 20.6096 28.1939 20.5842L28.1892 20.5824C28.0948 20.5445 27.994 20.5252 27.8923 20.5256C27.8027 20.524 27.7138 20.5417 27.6315 20.5773C27.3833 20.7028 27.1128 20.7781 26.8355 20.799C26.6756 20.8029 26.5195 20.7506 26.3942 20.6513C26.4018 20.5097 26.4109 20.3637 26.4207 20.2093L26.424 20.1549C26.5843 19.0321 26.516 17.8885 26.2233 16.7928C25.8781 16.0061 25.309 15.3384 24.5868 14.8732C23.8646 14.4079 23.0214 14.1657 22.1623 14.1766C22.0506 14.1778 21.9388 14.1788 21.827 14.1798C20.9692 14.1692 20.1273 14.4115 19.4064 14.8765C18.6855 15.3414 18.1176 16.0085 17.7735 16.7943C17.4808 17.889 17.4124 19.0316 17.5724 20.1535C17.5832 20.3194 17.5932 20.4855 17.6024 20.6516C17.4643 20.7598 17.2909 20.8128 17.1159 20.8003C16.8214 20.7877 16.5332 20.7115 16.2709 20.5771C16.2066 20.5487 16.1368 20.5348 16.0665 20.5363C15.9217 20.5306 15.7787 20.5704 15.6575 20.6499C15.5364 20.7295 15.4432 20.845 15.391 20.9802C15.3227 21.339 15.8351 21.599 16.1465 21.722C16.2124 21.7482 16.2951 21.7744 16.3824 21.802C16.7338 21.9136 17.265 22.0821 17.4254 22.4602C17.4665 22.5836 17.4802 22.7145 17.4655 22.8438C17.4508 22.973 17.408 23.0975 17.3402 23.2084L17.3357 23.2181C17.1054 23.7194 16.8055 24.1857 16.4447 24.6031C15.7893 25.4184 14.8617 25.9699 13.8324 26.1564C13.7837 26.1644 13.7398 26.1901 13.7089 26.2286C13.6781 26.267 13.6626 26.3155 13.6654 26.3648C13.6675 26.402 13.6763 26.4386 13.6912 26.4728C13.8377 26.8154 14.573 27.0983 15.8177 27.2903C15.9341 27.3083 15.9833 27.498 16.0513 27.8088C16.0784 27.9332 16.1065 28.0624 16.1458 28.1957C16.1586 28.2548 16.1929 28.307 16.242 28.3422C16.2912 28.3775 16.3517 28.3932 16.4118 28.3863C16.5311 28.3796 16.6495 28.3626 16.7659 28.3355C17.0727 28.2686 17.3855 28.2332 17.6995 28.2299C17.9251 28.2304 18.1502 28.2495 18.3727 28.2868C18.8427 28.4059 19.2799 28.6292 19.6518 28.9403C20.2796 29.4764 21.0685 29.7873 21.8933 29.8237C21.9214 29.8237 21.9495 29.8227 21.9767 29.8203C22.011 29.822 22.056 29.8237 22.1033 29.8237C22.9284 29.7871 23.7178 29.476 24.346 28.9397C24.7175 28.6289 25.1543 28.4058 25.6239 28.2869C25.8464 28.2496 26.0716 28.2306 26.2972 28.23C26.611 28.2315 26.9238 28.2646 27.2309 28.3289C27.3473 28.3544 27.4659 28.3694 27.585 28.3737H27.6045C27.6609 28.3782 27.7171 28.362 27.7624 28.3281C27.8077 28.2942 27.8391 28.2449 27.8507 28.1895C27.8894 28.058 27.9178 27.9328 27.9456 27.8051C28.013 27.4959 28.0622 27.3071 28.179 27.289C29.424 27.0967 30.1594 26.8142 30.3049 26.4736C30.32 26.439 30.329 26.4021 30.3313 26.3645C30.3341 26.3153 30.3185 26.2668 30.2877 26.2284C30.2569 26.1899 30.2129 26.1642 30.1643 26.1561Z" fill="white"/>
</svg>
