<svg width="32" height="32" viewBox="0 0 32 32" fill="none" xmlns="http://www.w3.org/2000/svg">
<g clip-path="url(#clip0_123_3570)">
<path d="M31.9975 23.8796C31.9975 24.0546 31.9922 24.4349 31.9815 24.7282C31.9677 25.4201 31.9114 26.1104 31.8127 26.7953C31.6973 27.3959 31.5025 27.9783 31.2333 28.5274C30.6398 29.6971 29.6889 30.647 28.5186 31.2393C27.9664 31.5091 27.3806 31.704 26.7768 31.8187C26.097 31.9155 25.4119 31.9708 24.7253 31.9844C24.4317 31.9947 24.0515 32 23.8783 32L8.12204 31.9975C7.94698 31.9975 7.56706 31.9922 7.27341 31.9815C6.58156 31.9677 5.8912 31.9114 5.20627 31.8127C4.60575 31.6973 4.02327 31.5025 3.4742 31.2333C2.30348 30.6403 1.35248 29.6893 0.759529 28.5186C0.490079 27.9664 0.295626 27.3806 0.181333 26.7768C0.0845575 26.097 0.0292396 25.4119 0.0156863 24.7254C0.00635136 24.4431 0.00112205 24.1607 0 23.8783L0.0025098 8.12176C0.0025098 7.9467 0.00784314 7.56647 0.0185098 7.27313C0.032294 6.58128 0.0886621 5.89092 0.187294 5.206C0.302668 4.60546 0.497532 4.02298 0.766745 3.47392C1.35982 2.30345 2.3108 1.35268 3.48141 0.759877C4.03361 0.489927 4.61939 0.294948 5.22322 0.180113C5.90304 0.0833044 6.58812 0.0279864 7.27467 0.0144656C7.56831 0.00411265 7.94855 -0.0012207 8.12173 -0.0012207L23.8795 0.00254401C24.0549 0.00254401 24.4348 0.00787732 24.7282 0.018544C25.42 0.032333 26.1104 0.0887011 26.7953 0.187328C27.3958 0.302702 27.9783 0.497566 28.5274 0.766779C29.6971 1.36019 30.647 2.31115 31.2392 3.48145C31.5092 4.03363 31.7042 4.61941 31.819 5.22325C31.9157 5.90308 31.9711 6.58816 31.9846 7.2747C31.995 7.56835 32.0003 7.94858 32.0003 8.12176L31.9978 23.878L31.9975 23.8796Z" fill="#1C1A23"/>
<path d="M24.4769 7.57041C22.5091 5.60205 19.893 4.41592 17.1157 4.23287C14.3384 4.04981 11.5893 4.88231 9.38017 6.57535C7.17103 8.26839 5.65246 10.7066 5.10722 13.4359C4.56197 16.1653 5.02722 18.9998 6.41632 21.4117L4.78839 27.3561L10.8715 25.7608C12.5541 26.6769 14.4393 27.157 16.3551 27.1572H16.3598C18.6291 27.1572 20.8474 26.4843 22.7343 25.2237C24.6211 23.9631 26.0919 22.1714 26.9607 20.075C27.8294 17.9787 28.0572 15.6718 27.6151 13.4461C27.173 11.2203 26.0809 9.17559 24.4769 7.57041ZM16.3608 25.2197H16.357C14.649 25.2199 12.9724 24.7609 11.5027 23.8907L11.1545 23.684L7.54479 24.6305L8.50824 21.1121L8.28141 20.7513C7.15756 18.9602 6.66076 16.8465 6.8691 14.7423C7.07745 12.6382 7.97914 10.6629 9.43242 9.12705C10.8857 7.59119 12.8082 6.58182 14.8976 6.25761C16.987 5.93341 19.125 6.31274 20.9753 7.336C22.8257 8.35925 24.2836 9.9684 25.1198 11.9105C25.9559 13.8526 26.123 16.0175 25.5948 18.0649C25.0665 20.1122 23.8728 21.926 22.2014 23.2211C20.53 24.5162 18.4755 25.2191 16.3611 25.2193L16.3608 25.2197ZM21.5906 18.079C21.3038 17.9356 19.8943 17.2419 19.6314 17.1462C19.3685 17.0506 19.1774 17.0029 18.9864 17.2896C18.7953 17.5764 18.2457 18.2223 18.0784 18.4134C17.9112 18.6044 17.744 18.6286 17.4573 18.4852C16.6119 18.1485 15.8317 17.6671 15.1517 17.0625C14.5248 16.4831 13.9873 15.814 13.5567 15.0769C13.3895 14.7899 13.5388 14.6349 13.6822 14.4918C13.8111 14.3635 13.9689 14.1571 14.1123 13.9899C14.2303 13.845 14.3268 13.684 14.3991 13.5117C14.4371 13.4327 14.4549 13.3454 14.4507 13.2577C14.4466 13.1701 14.4206 13.0849 14.3752 13.0098C14.3037 12.8664 13.7302 11.4556 13.4911 10.8818C13.2584 10.3227 13.0206 10.3983 12.8461 10.3899C12.663 10.3821 12.4797 10.3787 12.2965 10.3798C12.1512 10.3836 12.0083 10.4174 11.8767 10.4792C11.7451 10.5409 11.6277 10.6291 11.5319 10.7384C11.2077 11.0454 10.951 11.4166 10.7781 11.8283C10.6053 12.24 10.5201 12.6832 10.528 13.1296C10.528 14.5414 11.5555 15.9033 11.6988 16.0946C11.8422 16.286 13.7205 19.1811 16.5967 20.4241C17.1305 20.654 17.6761 20.8556 18.2312 21.028C18.8161 21.2057 19.4344 21.2446 20.037 21.1415C20.5879 21.0593 21.7333 20.4482 21.9724 19.7787C22.1599 19.3505 22.2181 18.8768 22.1396 18.4159C22.0678 18.2964 21.8767 18.2245 21.59 18.0812L21.5906 18.079Z" fill="white"/>
</g>
<defs>
<clipPath id="clip0_123_3570">
<rect width="32" height="32" fill="white"/>
</clipPath>
</defs>
</svg>
