<svg width="58" height="72" viewBox="0 0 58 72" fill="none" xmlns="http://www.w3.org/2000/svg">
<g clip-path="url(#clip0_42_1165)">
<path d="M9.19849 65.2569C9.50882 65.1937 9.74581 65.0348 9.90946 64.7815C10.0731 64.5276 10.1546 64.224 10.1546 63.8696C10.1546 63.6394 10.122 63.4404 10.0568 63.274C9.99162 63.107 9.88229 62.9603 9.72883 62.8333C9.57536 62.7064 9.36418 62.6113 9.09527 62.5475C8.82637 62.4843 8.49703 62.4524 8.10657 62.4524C7.98638 62.4524 7.79081 62.4599 7.52055 62.4748C7.25029 62.4897 7.0099 62.4972 6.79939 62.4972H5.93292V68.3663H6.41369C6.59364 68.3697 6.89107 68.3778 7.30529 68.3914C7.71883 68.4043 8.05632 68.4111 8.3164 68.4111C8.68037 68.4111 8.99749 68.3656 9.26775 68.276C9.53802 68.1856 9.7526 68.0593 9.91149 67.8977C10.0697 67.7354 10.1872 67.5507 10.2646 67.3416C10.3413 67.1331 10.3794 66.9002 10.3794 66.6428C10.3794 65.7879 9.98551 65.3255 9.19781 65.2555L9.19849 65.2569ZM7.58574 63.4642H7.95107C8.15818 63.4642 8.3164 63.5036 8.42708 63.5817C8.53709 63.6604 8.59209 63.7996 8.59209 64V64.1249C8.59209 64.3456 8.54049 64.5317 8.43659 64.6831C8.33337 64.8345 8.18466 64.9106 7.99113 64.9106H7.58574V63.4635V63.4642ZM8.66272 66.7094C8.66272 66.8927 8.60771 67.0516 8.49771 67.1854C8.3877 67.3192 8.21386 67.3857 7.97687 67.3857H7.58642V65.7587H7.97687C8.15343 65.7587 8.31232 65.8049 8.45221 65.8965C8.59209 65.9889 8.66272 66.143 8.66272 66.3597V66.7101V66.7094Z" fill="white"/>
<path d="M12.1226 62.4973L12.2428 62.9027L10.7156 68.3664H12.1878L12.3779 67.43H13.7998L14.0253 68.3664H15.8628L14.1903 62.4973H12.1219H12.1226ZM12.583 66.4087L13.0237 64.2208L13.5547 66.4087H12.583Z" fill="white"/>
<path d="M18.3175 62.4973H16.66V68.3664H19.8094V67.0246H18.3175V62.4973Z" fill="white"/>
<path d="M21.8528 62.4973L21.973 62.9027L20.4458 68.3664H21.918L22.1081 67.43H23.5301L23.7555 68.3664H25.5937L23.9212 62.4973H21.8528ZM22.3132 66.4087L22.7539 64.2208L23.2849 66.4087H22.3132Z" fill="white"/>
<path d="M28.072 63.607C28.1922 63.5052 28.364 63.4543 28.5881 63.4543C28.6282 63.4543 28.6784 63.4624 28.7382 63.4794L28.9982 64.0756H29.7595L29.8342 62.9232C29.824 62.9103 29.8083 62.8913 29.7866 62.8682C29.7649 62.8445 29.7119 62.803 29.6264 62.7433C29.5415 62.6828 29.4464 62.6299 29.3412 62.583C29.2359 62.5362 29.0926 62.4948 28.9106 62.4581C28.7287 62.4214 28.5344 62.4031 28.3273 62.4031C27.8764 62.4031 27.4941 62.4717 27.1804 62.6088C26.8667 62.7453 26.6202 62.9504 26.4416 63.222C26.263 63.4943 26.1353 63.8094 26.0586 64.1686C25.9819 64.5272 25.9432 64.9543 25.9432 65.4486C25.9432 65.9124 25.9819 66.3205 26.0586 66.673C26.1353 67.0254 26.2617 67.3412 26.4368 67.6196C26.612 67.8987 26.8551 68.1105 27.1655 68.2558C27.4758 68.4012 27.85 68.4738 28.2873 68.4738C28.4944 68.4738 28.6879 68.4562 28.8679 68.4208C29.0478 68.3862 29.1924 68.3428 29.3011 68.2911C29.4097 68.2395 29.5028 68.1873 29.5815 68.1356C29.6596 68.084 29.716 68.0413 29.7493 68.008L29.7941 67.953L29.5686 67.1619C29.4484 67.2488 29.295 67.3133 29.1082 67.3547C28.9215 67.3962 28.7429 67.4172 28.5725 67.4172C28.4957 67.4172 28.4238 67.4063 28.3572 67.3846C28.2907 67.3629 28.2153 67.312 28.1318 67.2318C28.0482 67.1517 27.9763 67.0458 27.9165 66.914C27.8567 66.7823 27.8058 66.5928 27.7637 66.3457C27.7223 66.0992 27.7012 65.8099 27.7012 65.4799C27.7012 64.9258 27.7332 64.5007 27.7963 64.2053C27.8595 63.9099 27.9518 63.7109 28.072 63.6091V63.607Z" fill="white"/>
<path d="M35.1484 64.0702C35.105 63.8535 35.0473 63.6634 34.976 63.5018C34.904 63.3395 34.8089 63.1874 34.6908 63.0441C34.5719 62.9008 34.4327 62.7833 34.2725 62.693C34.1122 62.6027 33.92 62.5321 33.6966 62.4805C33.4725 62.4289 33.2206 62.4031 32.9402 62.4031C32.5327 62.4031 32.1796 62.4499 31.8808 62.5436C31.5821 62.6373 31.3383 62.7657 31.1495 62.9293C30.9607 63.093 30.81 63.3055 30.6966 63.5677C30.5832 63.8298 30.5051 64.1095 30.4637 64.4063C30.4222 64.7037 30.4012 65.0521 30.4012 65.4527C30.4012 65.723 30.4093 65.9661 30.4263 66.1813C30.4426 66.3966 30.4732 66.6118 30.5159 66.8271C30.5594 67.0424 30.6171 67.2298 30.6891 67.39C30.7611 67.5503 30.8561 67.7004 30.9743 67.8409C31.0925 67.9808 31.2323 68.0963 31.3926 68.1859C31.5529 68.2762 31.7437 68.3461 31.9657 68.3964C32.1878 68.4466 32.437 68.4718 32.714 68.4718C33.1215 68.4718 33.4746 68.4256 33.7734 68.3339C34.0721 68.2416 34.3166 68.1153 34.5067 67.953C34.6969 67.7914 34.849 67.5809 34.9624 67.3221C35.0758 67.0634 35.1546 66.785 35.198 66.4883C35.2415 66.1908 35.2632 65.8425 35.2632 65.4412C35.2632 65.1709 35.2551 64.9285 35.2381 64.7153C35.2218 64.5014 35.1912 64.2861 35.1478 64.0695L35.1484 64.0702ZM33.4209 65.873C33.4209 66.364 33.3999 66.732 33.3585 66.9772C33.3164 67.223 33.2559 67.3846 33.1758 67.4627C33.0957 67.5415 32.9775 67.5809 32.82 67.5809C32.6061 67.5809 32.4567 67.4722 32.3718 67.2549C32.2869 67.0376 32.2441 66.6526 32.2441 66.0978V64.8409C32.2441 64.2365 32.2869 63.8203 32.3718 63.5914C32.4567 63.3626 32.6061 63.2485 32.82 63.2485C33.0339 63.2485 33.1873 63.3653 33.281 63.5989C33.3748 63.8332 33.4209 64.1883 33.4209 64.6657V65.8724V65.873Z" fill="white"/>
<path d="M39.2447 64.07L39.4899 66.2987L38.6085 64.4L37.687 62.4973H35.8447L36.0899 62.9679V68.3664H37.6822V66.5187L37.3869 64.5963L38.1229 66.0481L39.3147 68.3664H40.8419V62.4973H39.2447V64.07Z" fill="white"/>
<path d="M43.0902 62.4973L43.2104 62.9027L41.6832 68.3664H43.1554L43.3455 67.43H44.7674L44.9929 68.3664H46.8304L45.1579 62.4973H43.0895H43.0902ZM43.5506 66.4087L43.9913 64.2208L44.5223 66.4087H43.5506Z" fill="white"/>
<path d="M50.5718 64.821H49.285V62.4973H47.6274V68.3664H49.285V65.9727H50.5718V68.3664H52.2293V62.4973H50.5718V64.821Z" fill="white"/>
<path d="M47.9657 13.0737L46.7529 14.2858V14.5452L47.9657 15.7669H48.2435L49.5112 14.5452V14.2858L48.2435 13.0737H47.9657Z" fill="white"/>
<path d="M49.1358 11.8773H49.7932C50.4722 11.8773 51.0535 11.6349 51.5377 11.1507C52.0218 10.6666 52.2642 10.0846 52.2642 9.40625L52.2547 6.00963C52.2547 5.76857 52.2235 5.51732 52.1624 5.2552C52.1006 4.99309 52.0266 4.76357 51.9403 4.56597C51.8541 4.36836 51.7658 4.18977 51.6762 4.02884C51.5865 3.86858 51.4833 3.70221 51.3665 3.52905L49.256 5.18594C49.2995 5.22329 49.3545 5.27286 49.4224 5.33398C49.4903 5.39577 49.6119 5.52683 49.7877 5.72715C49.9636 5.92747 50.1177 6.12643 50.2502 6.32403C50.3826 6.52164 50.5048 6.76066 50.6155 7.04111C50.7262 7.32156 50.7819 7.58911 50.7819 7.84172H39.4824V11.8773H49.1345H49.1358Z" fill="white"/>
<path d="M9.54021 20.9989H33.3274C34.0065 20.9989 34.5864 20.7572 35.0679 20.2724C35.5493 19.7882 35.7897 19.2069 35.7897 18.5279V11.8962L36.7336 11.2301L35.7523 7.84229L32.8833 10.2584C32.4949 10.585 32.3802 10.9985 32.5404 11.4983L33.8822 15.5529C33.9746 15.8368 33.9685 16.6021 33.8639 16.7467C33.7593 16.892 33.5183 16.9647 33.1421 16.9647H5.96228V21.0003H9.54021V20.9989Z" fill="white"/>
<path d="M24.0609 30.0665H50.1067C50.4523 30.0665 50.764 29.9938 51.0418 29.8485C51.3195 29.7038 51.5402 29.5103 51.7038 29.2699C51.8675 29.0295 51.9917 28.7701 52.0787 28.4924C52.1649 28.2147 52.2084 27.9308 52.2084 27.6409L52.2179 25.2533C52.2179 22.2791 48.9693 21.9212 48.9693 21.9212L52.2179 20.8843V18.1355L47.5344 19.626C47.2812 19.7123 47.0761 19.8637 46.9192 20.0796C46.7617 20.2956 46.6829 20.5366 46.6829 20.8015V24.1057C46.7264 24.0996 46.7875 24.0949 46.8683 24.0922C46.9484 24.0888 47.1032 24.0874 47.3314 24.0874C47.5596 24.0874 47.7769 24.0955 47.984 24.1105C48.1904 24.1261 48.4206 24.158 48.6739 24.2076C48.9265 24.2572 49.1445 24.3203 49.3265 24.397C49.5084 24.4745 49.6612 24.5824 49.7848 24.721C49.9084 24.8595 49.9702 25.0218 49.9702 25.2065C49.9702 25.5154 49.8561 25.7293 49.628 25.8502C49.3998 25.9704 49.082 26.0308 48.6746 26.0308H5.93292V30.0665H24.0602H24.0609Z" fill="white"/>
<path d="M17.8889 44.2757C18.3703 44.0408 18.8205 43.3936 19.2402 42.3323C19.6598 41.2709 19.8975 40.2062 19.9525 39.1387H43.9855V35.1031H20.2119C20.1684 34.4614 20.0068 33.8876 19.7257 33.381C19.4446 32.8751 19.0731 32.4819 18.6107 32.2008C18.1476 31.9203 17.6356 31.7798 17.074 31.7798C16.1484 31.7798 15.4741 32.0236 15.0518 32.5111C14.6294 32.9987 14.4175 33.6404 14.4175 34.4362V37.111C14.4175 37.6726 14.6151 38.1507 15.0097 38.5459C15.4042 38.9404 15.8829 39.138 16.4445 39.138H18.1659C18.0179 39.4218 17.7076 39.7267 17.2356 40.054C16.7637 40.3807 16.2435 40.6761 15.6758 40.9382C15.1081 41.2003 14.5479 41.4427 13.9958 41.6648C13.4438 41.8868 12.9854 42.0593 12.6214 42.1829L12.066 42.3683V42.8959C12.0721 42.8959 13.2971 43.2904 15.7403 44.0808C16.7772 44.4013 17.493 44.4665 17.8875 44.275L17.8889 44.2757ZM16.473 35.1031C16.2632 35.1031 16.0642 35.0413 15.8761 34.9177C15.6874 34.7941 15.5937 34.6094 15.5937 34.3622C15.5937 33.8197 15.8436 33.5474 16.3433 33.5474C16.5837 33.5474 16.8757 33.6771 17.218 33.9365C17.5609 34.1952 17.8427 34.4546 18.0647 34.714L18.3981 35.1031H16.473Z" fill="white"/>
<path d="M26.1159 48.348H49.7456C50.4247 48.348 51.0059 48.1056 51.4901 47.6214C51.9743 47.1372 52.2167 46.5553 52.2167 45.8762L52.2072 42.4796C52.2072 42.2385 52.1759 41.9873 52.1148 41.7252C52.053 41.4624 51.979 41.2329 51.8928 41.0359C51.8065 40.8383 51.7183 40.6591 51.6286 40.4988C51.539 40.3379 51.4358 40.1715 51.319 39.999L49.2085 41.6559C49.2519 41.6933 49.3069 41.7428 49.3748 41.8039C49.4427 41.8657 49.5643 41.9961 49.7408 42.1978C49.9167 42.3981 50.0709 42.5971 50.2033 42.7947C50.3357 42.9916 50.4579 43.2306 50.5693 43.5118C50.68 43.7929 50.7357 44.0598 50.7357 44.313H22.8986V48.348H26.1152H26.1159Z" fill="white"/>
<path d="M48.2435 38.528L49.5112 37.3057V37.047L48.2435 35.8342H47.9657L46.7529 37.047V37.3057L47.9657 38.528H48.2435Z" fill="white"/>
<path d="M7.42348 47.6628L8.53441 46.5885L9.608 47.6628H9.88505L11.1535 46.4412V46.1818L9.88505 44.969H9.608L8.53441 46.0337L7.42348 44.969H7.14575L5.92413 46.1818V46.4412L7.14575 47.6628H7.42348Z" fill="white"/>
<path d="M52.2166 57.4133V53.3777H12.4492C12.1898 53.3777 11.9895 53.2636 11.8476 53.0348C11.8041 52.9546 11.777 52.8745 11.7641 52.7944L10.9499 47.9446L8.84889 49.5275L9.01526 50.5454C8.79932 50.5766 8.61733 50.6071 8.4693 50.6377C8.32127 50.6689 8.14539 50.707 7.94168 50.7538C7.73796 50.8 7.56344 50.8536 7.41881 50.9154C7.27349 50.9772 7.11798 51.0512 6.95162 51.1375C6.78525 51.2237 6.64604 51.3256 6.53536 51.4424C6.42467 51.5599 6.32078 51.6909 6.22571 51.8356C6.12996 51.9809 6.05866 52.1493 6.01249 52.3401C5.96631 52.5316 5.94322 52.7414 5.94322 52.9696L5.93372 54.3304C5.93372 54.6142 5.95952 54.8764 6.01249 55.1167C6.06477 55.3571 6.13743 55.5608 6.22978 55.7272C6.32213 55.8943 6.42739 56.0436 6.54418 56.1761C6.66166 56.3092 6.78457 56.4151 6.91427 56.4952C7.04397 56.5753 7.17367 56.6453 7.30269 56.7037C7.43239 56.7621 7.55597 56.8042 7.67277 56.8286C7.79025 56.8538 7.89482 56.8735 7.98785 56.8891C8.0802 56.9047 8.1515 56.9122 8.2004 56.9122H8.28392L9.69974 54.5891C9.76154 54.8981 9.82944 55.1724 9.90346 55.4128C9.97748 55.6539 10.0888 55.9051 10.2369 56.1672C10.3849 56.4294 10.5547 56.6473 10.7462 56.8198C10.9377 56.9923 11.1842 57.1342 11.4863 57.2449C11.7885 57.3563 12.1308 57.4119 12.5137 57.4119H52.2166V57.4133ZM9.40368 54.0255C9.32355 54.0377 9.17823 54.0425 8.9684 54.0391C8.75858 54.0364 8.57048 54.0133 8.40343 53.9698C8.23706 53.927 8.07817 53.836 7.92674 53.6968C7.77531 53.5583 7.68771 53.3743 7.66326 53.1461C7.61369 52.7326 7.70672 52.406 7.941 52.1649C8.17527 51.9238 8.47134 51.7792 8.8292 51.7296C9.0886 51.6991 9.23663 51.7982 9.2733 52.0257L9.59721 53.9882C9.54764 54.0011 9.48313 54.0133 9.403 54.0255H9.40368Z" fill="white"/>
<path d="M29.723 7.8418H5.96228V11.8774H29.723V7.8418Z" fill="white"/>
<path d="M43.9696 16.9485H35.8101V20.9841H43.9696V16.9485Z" fill="white"/>
<path d="M11.6607 35.1626H5.93292V39.1982H11.6607V35.1626Z" fill="white"/>
</g>
<defs>
<clipPath id="clip0_42_1165">
<rect width="57.8499" height="72" fill="white" transform="translate(0.150146)"/>
</clipPath>
</defs>
</svg>
