<svg width="25" height="24" viewBox="0 0 25 24" fill="none" xmlns="http://www.w3.org/2000/svg">
<path d="M7.47325 2.0031C7.29915 2.00683 7.12905 2.05629 6.97986 2.14647C6.83067 2.23664 6.70759 2.36446 6.62286 2.51718L5.35294 4.84916L3.02097 6.11908C2.86387 6.20533 2.73278 6.33241 2.64146 6.48702C2.55014 6.64163 2.50195 6.81801 2.50195 6.99775C2.50195 7.1775 2.55014 7.35399 2.64146 7.5086C2.73278 7.66322 2.86387 7.7903 3.02097 7.87655L5.35294 9.14646L6.62286 11.4784C6.70824 11.6378 6.83503 11.7709 6.98975 11.8637C7.14448 11.9565 7.32136 12.0056 7.5016 12.0056C7.68185 12.0056 7.85872 11.9565 8.01345 11.8637C8.16817 11.7709 8.29496 11.6378 8.38034 11.4784L9.65782 9.14646L11.9785 7.87655C12.1356 7.7903 12.2666 7.66322 12.358 7.5086C12.4493 7.35399 12.4975 7.1775 12.4975 6.99775C12.4975 6.81801 12.4493 6.64163 12.358 6.48702C12.2666 6.33241 12.1356 6.20533 11.9785 6.11908L9.65782 4.84916L8.38034 2.51718C8.29148 2.35524 8.15971 2.22113 7.99961 2.12974C7.83951 2.03835 7.65733 1.99316 7.47325 1.99929V2.0031ZM7.49971 5.07962L8.04018 6.06233C8.132 6.22994 8.26971 6.36769 8.43703 6.45922L9.41971 6.99591L8.43703 7.5364C8.26971 7.62793 8.132 7.76557 8.04018 7.93318L7.49971 8.91589L6.97058 7.93318C6.87876 7.76557 6.74105 7.62793 6.57373 7.5364L5.59105 6.99591L6.57373 6.45922C6.74157 6.36667 6.87933 6.22753 6.97058 6.05852L7.49971 5.07962ZM17.5003 5.99809C17.3693 5.99759 17.2395 6.02295 17.1182 6.07283C16.997 6.1227 16.8867 6.19609 16.7937 6.28875C16.7007 6.3814 16.6268 6.49153 16.5762 6.61286C16.5256 6.73419 16.4993 6.86438 16.4988 6.99591C16.4988 7.12776 16.5247 7.25823 16.5751 7.38C16.6255 7.50176 16.6993 7.61244 16.7923 7.70549C16.8854 7.79855 16.9958 7.87223 17.1173 7.92234C17.2388 7.97245 17.369 7.99792 17.5003 7.99742C17.765 7.99742 18.0188 7.89194 18.2059 7.70411C18.393 7.51628 18.4981 7.26154 18.4981 6.99591C18.4971 6.73093 18.3916 6.47715 18.2046 6.29013C18.0175 6.10312 17.7643 5.99808 17.5003 5.99809ZM17.4701 11.9924C17.2945 11.9977 17.1234 12.0493 16.9741 12.1422C16.8247 12.2352 16.7025 12.3661 16.6197 12.5216L15.3498 14.8422L13.0216 16.1197C12.8645 16.2059 12.7334 16.333 12.6421 16.4876C12.5508 16.6422 12.5026 16.8186 12.5026 16.9984C12.5026 17.1781 12.5508 17.3546 12.6421 17.5092C12.7334 17.6638 12.8645 17.7909 13.0216 17.8772L15.3498 19.1471L16.6197 21.4753C16.7051 21.6346 16.8319 21.7677 16.9866 21.8605C17.1413 21.9533 17.3182 22.0024 17.4985 22.0024C17.6787 22.0024 17.8556 21.9533 18.0103 21.8605C18.165 21.7677 18.2918 21.6346 18.3772 21.4753L19.6471 19.1471L21.9791 17.8772C22.1362 17.7909 22.2673 17.6638 22.3586 17.5092C22.4499 17.3546 22.4981 17.1781 22.4981 16.9984C22.4981 16.8186 22.4499 16.6422 22.3586 16.4876C22.2673 16.333 22.1362 16.2059 21.9791 16.1197L19.6471 14.8422L18.3772 12.5178C18.2893 12.3545 18.158 12.2189 17.9978 12.1261C17.8377 12.0333 17.6549 11.987 17.4701 11.9924ZM17.5003 15.0765L18.037 16.0591C18.1293 16.2287 18.2684 16.3679 18.4377 16.4598L19.4203 16.9965L18.4377 17.5256C18.2684 17.6176 18.1293 17.7568 18.037 17.9263L17.5003 18.909L16.9599 17.9263C16.8681 17.7587 16.7303 17.6209 16.563 17.5294L15.5803 17.0003L16.563 16.4598C16.7309 16.3673 16.8686 16.2281 16.9599 16.0591L17.5003 15.0765ZM7.50349 15.9949C7.37214 15.9944 7.24198 16.02 7.12049 16.0701C6.999 16.1202 6.88855 16.1939 6.7955 16.2869C6.70244 16.38 6.62861 16.4906 6.57823 16.6123C6.52785 16.7341 6.50192 16.8647 6.50192 16.9965C6.50241 17.1281 6.52871 17.2581 6.57931 17.3795C6.62991 17.5008 6.70382 17.611 6.79683 17.7037C6.88983 17.7963 7.00011 17.8696 7.12136 17.9195C7.24261 17.9694 7.37246 17.9948 7.50349 17.9943C7.76747 17.9944 8.0207 17.8893 8.20771 17.7023C8.39473 17.5153 8.50029 17.2615 8.50129 16.9965C8.50129 16.7309 8.39616 16.4762 8.20904 16.2883C8.02192 16.1005 7.76812 15.9949 7.50349 15.9949Z" fill="#A8A9DC"/>
</svg>
